# xmcd
#
# Track frame offsets:
#	150
#	6241
#	24742
#	39137
#	66815
#	85251
#	100228
#	107472
#	122531
#	141931
#
# Disc length: 2576 seconds
#
# Revision: 1
# Processed by: cddbd v1.5.2PL0 Copyright (c) Steve Scherf et al.
# Submitted via: audiograbber 1.83.01
#
DISCID=770a0e0a
DTITLE=Disaster K.F.W. - Collateral Demage
DYEAR=2006
DGENRE=Death Metal
TTITLE0=Intro
TTITLE1=Bloody And Gore
TTITLE2=Collateral Damage
TTITLE3=Hartlackers United
TTITLE4=Clash Of The Titans
TTITLE5=Fera Is Our Crowd (Fuck Sauerkraut)
TTITLE6=Exorcist
TTITLE7=To Darkness
TTITLE8=Kill All Humans
TTITLE9=Hell Is Born
EXTD=
EXTT0=
EXTT1=
EXTT2=
EXTT3=
EXTT4=
EXTT5=
EXTT6=
EXTT7=
EXTT8=
EXTT9=
PLAYORDER=
